<svg width="144" height="138" viewBox="0 0 144 138" fill="none" xmlns="http://www.w3.org/2000/svg">
<path fill-rule="evenodd" clip-rule="evenodd" d="M84.4199 112.065C83.1796 114.787 80.667 117.945 78.2981 119.759C75.8816 121.61 73.7384 122.685 70.715 123.563C69.4892 123.919 69.4332 123.953 69.8761 124.078C70.1371 124.152 71.7389 124.21 73.4356 124.208C76.8997 124.204 78.2057 123.977 80.9503 122.907C86.0743 120.908 90.59 116.568 92.7199 111.595L93.0417 110.844H89.0091H84.9766L84.4199 112.065Z" fill="#F3C700"/>
<path fill-rule="evenodd" clip-rule="evenodd" d="M53.7455 111.437C54.2169 112.567 55.2744 114.409 56.1538 115.632C57.2677 117.181 59.7068 119.556 61.2567 120.602C63.716 122.26 67.5997 123.86 69.1645 123.86C69.9862 123.86 72.5074 123.078 74.2171 122.294C78.3994 120.373 82.5138 116.249 84.4203 112.065L84.977 110.844H69.2375H53.498L53.7455 111.437Z" fill="#F3C700"/>
<path d="M73.25 75.125H71.9375V38V0.875H73.25H74.5625V38V75.125H73.25Z" fill="#C7CBFA" stroke="#C7CBFA" stroke-width="0.75"/>
<path fill-rule="evenodd" clip-rule="evenodd" d="M71.6143 74.1006C72.0409 74.3174 72.5029 74.7274 72.7633 75.1204C73.1795 75.7488 73.2009 75.8774 73.2499 78.0443L73.3012 80.3111H75.2449C76.314 80.3111 77.5191 80.3563 77.9226 80.4117L78.6567 80.5123V78.2953C78.6567 75.9586 78.5257 75.3503 77.8735 74.657C77.1093 73.845 76.7171 73.7594 73.7109 73.7483L70.9009 73.738L71.6143 74.1006ZM69.5252 80.4275C69.9411 80.4603 70.5818 80.4598 70.949 80.4267C71.3162 80.3935 70.9759 80.3668 70.1928 80.3673C69.4097 80.3677 69.1093 80.3949 69.5252 80.4275Z" fill="#C7CBFA"/>
<path fill-rule="evenodd" clip-rule="evenodd" d="M69.7178 73.9663C68.9812 74.3072 68.306 74.9815 68.0668 75.6146C67.9742 75.8595 67.8984 77.0802 67.8984 78.327V80.5939L68.4917 80.4563C68.8181 80.3805 70.0336 80.3168 71.1929 80.3147L73.3008 80.3109L73.2495 78.0442C73.2005 75.8768 73.1791 75.7486 72.7624 75.1198C72.4865 74.7031 72.039 74.3161 71.5417 74.0642C70.6096 73.5918 70.5352 73.5879 69.7178 73.9663Z" fill="#EDEEFD"/>
<path fill-rule="evenodd" clip-rule="evenodd" d="M72.9158 80.691C74.5661 81.2254 76.0625 82.5711 76.8572 84.2356C77.1832 84.9184 77.3044 85.4515 77.3588 86.4413L77.4305 87.7464L79.4277 87.7475C80.5262 87.7482 81.9056 87.7941 82.4929 87.8496L83.5608 87.9504V87.2372C83.5608 86.1385 83.2823 84.9068 82.8174 83.9495C82.279 82.841 80.904 81.4911 79.7732 80.9606C78.9228 80.5618 78.7835 80.5469 75.5714 80.5118C72.5757 80.4789 72.3147 80.4964 72.9158 80.691Z" fill="#A298A1"/>
<path fill-rule="evenodd" clip-rule="evenodd" d="M72.7676 73.7822C73.1397 73.8157 73.7093 73.8152 74.0333 73.7812C74.3573 73.7472 74.0529 73.7198 73.3568 73.7205C72.6607 73.7209 72.3955 73.7488 72.7676 73.7822ZM69.6048 80.4721C67.8516 80.5704 67.4754 80.6424 66.678 81.0319C64.4287 82.1307 62.9944 84.5472 62.9944 87.2382V87.9527L64.6802 87.8495C65.6073 87.7927 68.8556 87.7464 71.8983 87.7464H77.4307L77.359 86.4412C77.2711 84.8424 76.7824 83.7148 75.631 82.4551C74.8645 81.6164 73.3106 80.6682 72.58 80.5933C72.3982 80.5747 73.4952 80.5187 75.0179 80.469L77.7865 80.3785L74.7015 80.369C73.0048 80.3638 70.7113 80.4101 69.6048 80.4721ZM63.5209 110.805C68.9877 110.828 77.8867 110.828 83.2964 110.805C88.7061 110.781 84.2333 110.763 73.3568 110.763C62.4803 110.763 58.054 110.781 63.5209 110.805Z" fill="#C6C2C6"/>
<path fill-rule="evenodd" clip-rule="evenodd" d="M76.5215 87.8623L75.5723 87.942L76.7851 88.1569C79.6357 88.6618 82.8887 90.0526 85.3295 91.8101C86.8848 92.9299 89.3895 95.5095 90.4164 97.0493C91.8953 99.267 93.0307 101.941 93.6197 104.595C93.755 105.204 93.9059 106.742 93.9551 108.012C94.0439 110.305 94.0418 110.324 93.6722 110.583C93.3223 110.828 93.5477 110.844 97.4239 110.844C101.218 110.844 101.569 110.821 101.81 110.555C102.406 109.896 101.999 105.059 101.129 102.459C99.551 97.7456 96.8775 94.187 92.7555 91.3135C90.8417 89.9794 87.6864 88.678 85.0645 88.1412C83.7615 87.8745 78.4457 87.7009 76.5215 87.8623Z" fill="#39BF46"/>
<path fill-rule="evenodd" clip-rule="evenodd" d="M63.6268 87.9052C55.2592 88.4509 47.7518 94.587 45.2884 102.894C44.4931 105.576 44.1741 110.074 44.7457 110.548C44.9656 110.73 48.8844 110.756 69.3069 110.71C87.0859 110.67 93.665 110.607 93.8246 110.476C94.113 110.239 93.971 106.182 93.6187 104.595C93.0297 101.942 91.8942 99.2673 90.4153 97.0496C89.3884 95.5098 86.8837 92.9301 85.3284 91.8104C82.8877 90.0529 79.6347 88.6621 76.784 88.1571L75.5712 87.9423L76.5204 87.8742C77.0425 87.8369 74.7288 87.8042 71.3788 87.8016C68.0288 87.7989 64.5404 87.8456 63.6268 87.9052Z" fill="#39BF46"/>
</svg>
